<svg xmlns="http://www.w3.org/2000/svg" version="1.1" xmlns:xlink="http://www.w3.org/1999/xlink" width="200" height="200"><svg xmlns="http://www.w3.org/2000/svg" version="1.1" xmlns:xlink="http://www.w3.org/1999/xlink" viewBox="0 0 200 200"><rect width="200" height="200" fill="url('#gradient')"></rect><defs><linearGradient id="SvgjsLinearGradient1006" gradientTransform="rotate(45 0.5 0.5)"><stop offset="0%" stop-color="#000000"></stop><stop offset="100%" stop-color="#4c76d5"></stop></linearGradient></defs><g><g fill="#ae1a1a" transform="matrix(5.80508545227178,0,0,5.80508545227178,29.961213483080954,140.69536657897868)" stroke="#000000" stroke-width="0.65"><path d="M6.74-4.46L6.74-14.22L10.16-14.22L10.16-4.46Q10.16-3.11 9.53-2.04Q8.90-0.98 7.77-0.39Q6.64 0.20 5.25 0.20L5.25 0.20Q2.93 0.20 1.64-0.98Q0.35-2.15 0.35-4.30L0.35-4.30L3.79-4.30Q3.79-3.32 4.13-2.88Q4.46-2.44 5.25-2.44L5.25-2.44Q5.97-2.44 6.35-2.97Q6.74-3.51 6.74-4.46L6.74-4.46ZM20.11 0L17.60-5.02L15.74-5.02L15.74 0L12.31 0L12.31-14.22L17.91-14.22Q20.44-14.22 21.87-13.10Q23.29-11.97 23.29-9.92L23.29-9.92Q23.29-8.44 22.69-7.46Q22.09-6.48 20.81-5.88L20.81-5.88L23.78-0.15L23.78 0L20.11 0ZM15.74-11.57L15.74-7.67L17.91-7.67Q18.89-7.67 19.38-8.18Q19.87-8.69 19.87-9.61Q19.87-10.53 19.38-11.05Q18.88-11.57 17.91-11.57L17.91-11.57L15.74-11.57Z"></path></g></g></svg><style>@media (prefers-color-scheme: light) { :root { filter: none; } }
@media (prefers-color-scheme: dark) { :root { filter: none; } }
</style></svg>