<?xml version="1.0" encoding="iso-8859-1"?>
<!-- Uploaded to: SVG Repo, www.svgrepo.com, Generator: SVG Repo Mixer Tools -->
<svg fill="#000000" height="800px" width="800px" version="1.1" id="Layer_1" xmlns="http://www.w3.org/2000/svg" xmlns:xlink="http://www.w3.org/1999/xlink" 
	 viewBox="0 0 392.598 392.598" xml:space="preserve">
<g>
	<g>
		<path d="M368.808,0H23.854C10.731,0,0.064,10.667,0.064,23.79v266.214c0,13.123,10.667,23.79,23.79,23.79h118.368v25.859
			c-29.285,7.564-50.489,21.269-56.566,38.335c-1.681,4.202-0.194,14.028,10.279,14.61h200.727
			c11.378-1.099,11.442-11.184,10.279-14.61c-6.077-17.067-27.281-30.772-56.566-38.335v-25.859h118.368
			c13.123,0,23.79-10.667,23.79-23.79V23.79C392.598,10.667,381.931,0,368.808,0z M271.256,370.747h-149.85
			c15.838-8.857,42.473-15.774,74.925-15.774C228.719,354.974,255.353,361.891,271.256,370.747z M164.008,335.321v-21.527h64.517
			v21.527c-10.149-1.358-20.945-2.133-32.194-2.133C185.018,333.188,174.222,333.964,164.008,335.321z M368.808,292.008H23.854
			c-1.099,0-2.004-0.84-2.004-2.004V140.218h24.824c6.012,0,10.925-4.848,10.925-10.925c0-6.012-4.848-10.925-10.925-10.925H21.85
			V98.974h45.446c6.012,0,10.925-4.849,10.925-10.925c0-6.077-4.849-10.925-10.925-10.925H21.85V23.661
			c0-1.099,0.905-2.004,2.004-2.004h344.953c1.099,0,2.004,0.84,2.004,2.004v266.343h0
			C370.812,291.103,369.972,292.008,368.808,292.008z"/>
	</g>
</g>
<g>
	<g>
		<path d="M310.238,63.095H262.4c-6.012,0-10.925,4.848-10.925,10.925s4.849,10.925,10.925,10.925h21.85L198.012,172.8
			l-22.691-22.044c-4.202-4.073-10.925-4.073-15.127-0.065l-85.269,81.131c-4.331,4.202-4.655,11.119-0.388,15.451
			c3.814,3.814,12.541,3.232,15.386,0.388l77.64-73.956l23.014,22.303c4.331,4.202,11.184,4.073,15.386-0.129l93.349-95.095v21.075
			c0,6.012,4.849,10.925,10.925,10.925c6.077,0,10.925-4.848,10.925-10.925V74.02C321.099,68.008,316.25,63.095,310.238,63.095z"/>
	</g>
</g>
</svg>