<?xml version="1.0" encoding="iso-8859-1"?>
<!-- Uploaded to: SVG Repo, www.svgrepo.com, Generator: SVG Repo Mixer Tools -->
<svg fill="#000000" height="800px" width="800px" version="1.1" id="Layer_1" xmlns="http://www.w3.org/2000/svg" xmlns:xlink="http://www.w3.org/1999/xlink" 
	 viewBox="0 0 507.9 507.9" xml:space="preserve">
<g>
	<g>
		<path d="M400.9,0H107.1C84.6,0,66.3,18.3,66.3,40.8V402c0,10.9,4.2,21.1,11.9,28.8l65.2,65.2c7.7,7.7,17.9,11.9,28.8,11.9h228.6
			c22.5,0,40.8-18.3,40.8-40.8V40.8C441.7,18.3,423.4,0,400.9,0z M147.1,459.8l-32.6-32.6h32.6V459.8z M413.4,467.2
			c0,6.9-5.6,12.5-12.5,12.5H175.4V413c0-7.8-6.3-14.1-14.1-14.1H94.6V40.8c0-6.9,5.6-12.5,12.5-12.5h293.8
			c6.9,0,12.5,5.6,12.5,12.5V467.2z"/>
	</g>
</g>
<g>
	<g>
		<path d="M370.1,74.3H259.3c-7.8,0-14.1,6.3-14.1,14.1c0,7.8,6.3,14.1,14.1,14.1h110.8c7.8,0,14.1-6.3,14.1-14.1
			C384.2,80.6,377.9,74.3,370.1,74.3z"/>
	</g>
</g>
<g>
	<g>
		<path d="M370.1,159.6H137.9c-7.8,0-14.1,6.3-14.1,14.1s6.3,14.1,14.1,14.1H370c7.8,0,14.1-6.3,14.1-14.1
			C384.2,165.9,377.9,159.6,370.1,159.6z"/>
	</g>
</g>
<g>
	<g>
		<path d="M370.1,244.9H259.3c-7.8,0-14.1,6.3-14.1,14.1s6.3,14.1,14.1,14.1h110.8c7.8,0,14.1-6.3,14.1-14.1
			S377.9,244.9,370.1,244.9z"/>
	</g>
</g>
<g>
	<g>
		<path d="M370.1,330.1H137.9c-7.8,0-14.1,6.3-14.1,14.1c0,7.8,6.3,14.1,14.1,14.1H370c7.8,0,14.1-6.3,14.1-14.1
			C384.2,336.5,377.9,330.1,370.1,330.1z"/>
	</g>
</g>
<g>
	<g>
		<path d="M370.1,415.4H223c-7.8,0-14.1,6.3-14.1,14.1c0,7.8,6.3,14.1,14.1,14.1h147c7.8,0,14.1-6.3,14.1-14.1
			C384.2,421.7,377.9,415.4,370.1,415.4z"/>
	</g>
</g>
<g>
	<g>
		<path d="M239.7,48.9c-5.5-5.5-14.4-5.5-20,0L170.6,98l-22.7-22.7c-5.5-5.5-14.4-5.5-20,0c-5.5,5.5-5.5,14.4,0,20l32.7,32.7
			c2.8,2.8,6.4,4.1,10,4.1c3.6,0,7.2-1.4,10-4.1l59.1-59.1C245.2,63.4,245.2,54.5,239.7,48.9z"/>
	</g>
</g>
<g>
	<g>
		<path d="M239.7,210.7c-5.5-5.5-14.4-5.5-20,0l-49.1,49.1l-22.7-22.7c-5.5-5.5-14.4-5.5-20,0c-5.5,5.5-5.5,14.4,0,20l32.7,32.7
			c2.8,2.8,6.4,4.1,10,4.1c3.6,0,7.2-1.4,10-4.1l59.1-59.1C245.2,225.2,245.2,216.3,239.7,210.7z"/>
	</g>
</g>
</svg>