<?xml version="1.0" encoding="iso-8859-1"?>
<!-- Uploaded to: SVG Repo, www.svgrepo.com, Generator: SVG Repo Mixer Tools -->
<svg fill="#000000" height="800px" width="800px" version="1.1" id="Layer_1" xmlns="http://www.w3.org/2000/svg" xmlns:xlink="http://www.w3.org/1999/xlink" 
	 viewBox="0 0 508.1 508.1" xml:space="preserve">
<g>
	<g>
		<path d="M406.65,0h-305.2c-22.5,0-40.8,18.3-40.8,40.8v426.5c0,22.5,18.3,40.8,40.8,40.8h232.2c10.9,0,21.1-4.2,28.8-11.9
			l73.1-73.1c7.7-7.7,11.9-17.9,11.9-28.8V40.8C447.45,18.3,429.15,0,406.65,0z M358.75,459.8v-40.5h40.5L358.75,459.8z
			 M419.05,391.1h-74.6c-7.8,0-14.1,6.3-14.1,14.1v74.6h-228.9c-6.9,0-12.6-5.7-12.6-12.6V40.8c0-6.9,5.6-12.5,12.5-12.5h305.2
			c6.9,0,12.5,5.6,12.5,12.5V391.1z"/>
	</g>
</g>
<g>
	<g>
		<path d="M380.05,76.8h-252c-7.8,0-14.1,6.3-14.1,14.1c0,7.8,6.3,14.1,14.1,14.1h252c7.8,0,14.1-6.3,14.1-14.1
			C394.15,83.1,387.85,76.8,380.05,76.8z"/>
	</g>
</g>
<g>
	<g>
		<path d="M380.05,185.6h-252c-7.8,0-14.1,6.3-14.1,14.1c0,7.7,6.3,14.1,14.1,14.1h252c7.8,0,14.1-6.3,14.1-14.1
			C394.15,191.9,387.85,185.6,380.05,185.6z"/>
	</g>
</g>
<g>
	<g>
		<path d="M380.05,294.3h-252c-7.8,0-14.1,6.3-14.1,14.1c0,7.7,6.3,14.1,14.1,14.1h252c7.8,0,14.1-6.3,14.1-14.1
			C394.15,300.6,387.85,294.3,380.05,294.3z"/>
	</g>
</g>
<g>
	<g>
		<path d="M263.85,403h-135.8c-7.8,0-14.1,6.3-14.1,14.1s6.3,14.1,14.1,14.1h135.8c7.8,0,14.1-6.3,14.1-14.1
			C278.05,409.3,271.65,403,263.85,403z"/>
	</g>
</g>
</svg>