<!DOCTYPE svg PUBLIC "-//W3C//DTD SVG 1.1//EN" "http://www.w3.org/Graphics/SVG/1.1/DTD/svg11.dtd">
<!-- Uploaded to: SVG Repo, www.svgrepo.com, Transformed by: SVG Repo Mixer Tools -->
<svg fill="0000" height="800px" width="800px" version="1.1" id="Layer_1" xmlns="http://www.w3.org/2000/svg" xmlns:xlink="http://www.w3.org/1999/xlink" viewBox="0 0 392.582 392.582" xml:space="preserve" stroke="0000">
<g id="SVGRepo_bgCarrier" stroke-width="0"/>
<g id="SVGRepo_tracerCarrier" stroke-linecap="round" stroke-linejoin="round"/>
<g id="SVGRepo_iconCarrier"> <g> <g> <path d="M380.986,146.343l-49.778-42.214V58.941c0-6.012-4.848-10.925-10.925-10.925h-55.467 c-0.259-0.259-47.321-40.21-47.321-40.21c-12.283-10.408-30.125-10.408-42.408,0l-47.451,40.21H72.299 c-6.012,0-10.925,4.849-10.925,10.925v45.188l-49.842,42.214c-7.24,6.206-11.507,15.321-11.507,25.018v0.065v188.315 c0,18.101,14.739,32.84,32.84,32.84h326.853c18.101,0,32.84-14.739,32.84-32.84v-188.38 C392.558,161.665,388.291,152.549,380.986,146.343z M331.143,132.703l35.685,30.255c2.521,2.133,3.879,5.107,3.879,8.404 c0,3.297-1.422,6.271-3.879,8.404l-35.685,30.19V132.703z M189.18,24.485c4.073-3.491,10.149-3.491,14.222,0L231.2,48.081h-69.818 L189.18,24.485z M83.224,69.802h226.133v158.642l-105.955,89.794c-4.073,3.491-10.15,3.491-14.287,0L83.224,228.509V69.802z M21.875,171.362c0-3.297,1.422-6.271,3.879-8.404l35.685-30.255v77.253l-35.685-30.19c-2.457-2.069-3.879-5.107-3.879-8.339 V171.362z M21.81,358.772v-40.081h20.04c6.012,0,10.925-4.848,10.925-10.925S47.863,296.84,41.85,296.84H21.81v-16.097h40.598 c6.012,0,10.925-4.849,10.925-10.925c0-6.012-4.848-10.925-10.925-10.925H21.81v-53.915l90.699,76.8L21.81,358.772z M41.333,370.861l88.049-74.602l45.64,38.723c6.206,5.172,13.705,7.822,21.269,7.822c7.564,0,15.063-2.651,21.269-7.822 l49.519-41.956l91.863,77.834H41.333z M370.772,352.242l-86.885-73.632l86.885-73.568V352.242z"/> </g> </g> <g> <g> <path d="M279.038,101.414H113.543c-6.012,0-10.925,4.849-10.925,10.925c0,6.077,4.913,10.925,10.925,10.925h165.495 c6.012,0,10.925-4.849,10.925-10.925C289.964,106.327,285.115,101.414,279.038,101.414z"/> </g> </g> <g> <g> <path d="M279.038,156.299H113.543c-6.012,0-10.925,4.849-10.925,10.925c0,6.077,4.913,10.925,10.925,10.925h165.495 c6.012,0,10.925-4.849,10.925-10.925C289.964,161.212,285.115,156.299,279.038,156.299z"/> </g> </g> <g> <g> <path d="M257.059,211.248H135.523c-6.012,0-10.925,4.848-10.925,10.925s4.849,10.925,10.925,10.925h121.535 c6.012,0,10.925-4.848,10.925-10.925S263.071,211.248,257.059,211.248z"/> </g> </g> </g>
</svg>